<?xml version="1.0" encoding="UTF-8"?>
<svg width="11130px" height="11128px" viewBox="0 0 11130 11128" version="1.1" xmlns="http://www.w3.org/2000/svg" xmlns:xlink="http://www.w3.org/1999/xlink">
    <title>Group 18</title>
    <g id="Page-1" stroke="none" stroke-width="1" fill="none" fill-rule="evenodd">
        <g id="Group-18" fill="#325EE9">
            <path d="M10613.355,5822.71 C10754.205,3081.21 8650.205,648.66 5794.055,514.91 C3166.705,391.91 677.805,2371.86 520.155,5291.76 C366.505,8136.76 2551.005,10490.51 5352.255,10613.81 C8079.155,10733.81 10478.855,8614.01 10613.355,5822.71 M11124.255,5374.56 C11248.255,8086.11 9259.955,10718.66 6254.655,11083.76 C3009.355,11478.06 402.505,9131.76 43.905,6252.11 C-343.045,3144.61 1888.255,402.11 4878.555,42.31 C8269.305,-365.69 11036.055,2240.96 11124.255,5374.56" id="Fill-4"></path>
            <path d="M2290.65,4797.955 L2290.65,6498.605 C2692.5,6505.155 3096.05,6550.355 3355.55,6168.355 C3563.6,5861.955 3566.7,5517.655 3394,5199.455 C3159.6,4767.605 2732.6,4793.205 2290.65,4797.955 M1563.9,7138.755 L1563.9,4131.405 C2141.85,4172.955 2730.15,4149.055 3285.7,4272.355 C3945,4418.705 4321.8,5111.405 4234.75,5805.205 C4137.35,6581.355 3617.9,7097.205 2863.95,7134.855 C2434.9,7156.305 2003.95,7138.755 1563.9,7138.755" id="Fill-8"></path>
            <path d="M9735.23,6058.6 C9714.73,6670.25 9118.08,7147.95 8380.68,7162.75 C7537.93,7179.7 6953.83,6618.9 6903.43,5744.35 C6854.33,4892.25 7382.88,4223.6 8170.48,4141.5 C8968.98,4058.25 9642.53,4517.35 9753.18,5242.25 C9536.28,5242.25 9321.98,5250.45 9109.18,5236.75 C9053.13,5233.15 8989.33,5171.05 8949.78,5119.8 C8742.58,4851.4 8459.53,4742.7 8163.13,4827.3 C7870.43,4910.8 7664.83,5159.7 7650.23,5490.15 C7642.33,5669.85 7647.28,5861.7 7701.68,6030.3 C7867.83,6545.35 8545.43,6681.4 8881.58,6255.9 C9018.03,6083.2 9151.88,6046.25 9340.68,6057.15 C9471.78,6064.7 9603.63,6058.6 9735.23,6058.6" id="Fill-10"></path>
            <path d="M5091.37962,5971.22 C5091.08,6329.62 5266.88,6541.47 5566.78,6544.07 C5868.03,6546.62 6050.93,6334.32 6053.08,5979.57 C6055.33,5611.32 5867.18,5384.92 5562.38,5389.32 C5269.03,5393.52 5091.68,5612.57 5091.37962,5971.22 M5595.03,4773.77 C6318.88,4788.47 6806.68,5284.62 6790.13,5989.12 C6773.48,6696.52 6254.63,7193.07 5553.83,7172.27 C4816.28,7150.42 4322.03,6644.52 4345.03,5935.07 C4368.18,5222.47 4867.13,4758.97 5595.03,4773.77" id="Fill-12"></path>
        </g>
    </g>
</svg>