<?xml version="1.0" encoding="UTF-8"?>
<svg width="5068px" height="6351px" viewBox="0 0 5068 6351" version="1.1" xmlns="http://www.w3.org/2000/svg" xmlns:xlink="http://www.w3.org/1999/xlink">
    <title>Group 3</title>
    <defs>
        <polygon id="path-1" points="0 0.025 5067.74282 0.025 5067.74282 6350.89534 0 6350.89534"></polygon>
    </defs>
    <g id="Page-1" stroke="none" stroke-width="1" fill="none" fill-rule="evenodd">
        <g id="Group-3">
            <mask id="mask-2" fill="white">
                <use xlink:href="#path-1"></use>
            </mask>
            <g id="Clip-2"></g>
            <path d="M1701.36282,5841.3 C1700.56282,5971.3 1769.86282,6055.35 1881.41282,6059.7 C2001.36282,6064.4 2100.31282,5966.95 2098.46282,5845.8 C2096.96282,5744.5 1999.61282,5626.25 1910.91282,5617.9 C1803.16282,5607.8 1702.11282,5715.5 1701.36282,5841.3 L1701.36282,5841.3 Z M3535.46656,4916.7 C3536.16282,4794.05 3438.61282,4699.3 3317.31282,4704.9 C3207.36282,4710.05 3137.26282,4796.05 3138.21282,4924.8 C3139.01282,5039.3 3222.96282,5138.45 3326.01282,5146.6 C3423.86282,5154.35 3534.76282,5032.6 3535.46656,4916.7 L3535.46656,4916.7 Z M449.762821,4704.65 C330.762821,4706.6 265.662821,4780.05 264.212821,4913.85 C262.862821,5042.85 354.462821,5149.65 463.812821,5146.5 C560.012821,5143.75 667.512821,5008.6 659.662821,4900.3 C651.612821,4789.6 558.512821,4702.8 449.762821,4704.65 L449.762821,4704.65 Z M1880.51282,3761.6 C1756.61282,3768.2 1689.01282,3859.9 1702.01282,4003.65 C1712.21282,4116.6 1811.16282,4211.05 1910.71282,4202.8 C2011.51282,4194.45 2111.16282,4061 2098.71282,3951.05 C2086.21282,3840.95 1988.21282,3755.85 1880.51282,3761.6 L1880.51282,3761.6 Z M2201.31282,4360.75 C2084.96282,4409.25 2038.06282,4473.6 2044.66282,4593.05 C2056.51282,4807.05 2055.46282,5022.55 2045.11282,5236.65 C2039.31282,5356.75 2086.71282,5420.35 2200.11282,5456.95 C2382.31282,5341.2 2566.51282,5218.5 2756.46282,5105.5 C2880.21282,5031.9 2935.66282,4944 2867.31282,4803.25 C2648.51282,4657.9 2429.91282,4512.65 2201.31282,4360.75 L2201.31282,4360.75 Z M926.712821,5031.7 C1146.51282,5173 1372.01282,5318 1589.91282,5458.1 C1718.26282,5411.2 1763.31282,5336.25 1755.86282,5208.35 C1743.96282,5003.55 1746.16282,4797.25 1755.21282,4592.15 C1760.41282,4472.95 1710.86282,4408.35 1597.66282,4369.2 C1416.66282,4484.85 1234.46282,4608.55 1044.91282,4719.75 C919.262821,4793.45 875.912821,4886.85 926.712821,5031.7 L926.712821,5031.7 Z M1754.76282,2182.45 C1755.96282,2049.95 1757.16282,1917.5 1758.41282,1785.05 L1906.71282,1682.2 C2032.71282,1735.2 2057.56282,1835.55 2054.86282,1962.55 C2048.46282,2263.35 2052.81282,2564.35 2052.81282,2886.5 C2096.21282,2853.2 2117.31282,2840.4 2134.26282,2823.45 C2180.86282,2776.7 2228.71282,2730.75 2270.86282,2680.1 C2606.96282,2276.1 2720.11282,1823.2 2545.96282,1318.5 C2423.76282,964.3 2179.26282,687.85 1935.56282,413.2 C1925.51282,424.8 1915.51282,436.4 1905.46282,447.95 C1653.46282,639.95 1505.41282,909.85 1361.16282,1181.65 C1273.41282,1347 1212.66282,1523.45 1212.7627,1712.15 C1213.01282,2140.35 1371.96282,2499.6 1696.81282,2782 C1705.71282,2810.55 1714.61282,2839.15 1738.71282,2916.4 C1748.06282,2837.05 1751.46282,2807.8 1754.91282,2778.5 C1754.86282,2579.85 1754.81282,2381.15 1754.76282,2182.45 L1754.76282,2182.45 Z M4678.91282,4118.75 C4692.71282,4101.3 4706.51282,4083.8 4720.31282,4066.3 C4617.01282,3940.45 4479.86282,3953.35 4347.81282,3989.4 C4222.21282,4023.7 4131.11282,4107.05 4078.76282,4246.45 C4181.71282,4229.35 4266.56282,4161.6 4335.31282,4264.9 C4350.81282,4385.2 4329.91282,4490.25 4156.41282,4556.5 C4496.36282,4547.1 4637.56282,4414.8 4679.26282,4118.55 L4678.91282,4118.75 Z M1954.21282,-1.36424205e-12 C2146.16282,221.9 2353.06282,432.8 2526.16282,668.6 C2726.16282,941 2861.86282,1243.7 2908.96282,1590.6 C2948.46282,1881.5 2894.06282,2146.15 2785.56282,2404.5 C2662.66282,2697.15 2465.66282,2940.55 2234.91282,3156.7 C2186.71282,3201.8 2134.56282,3243.6 2091.86282,3293.5 C2028.21282,3367.85 2029.06282,3473.9 2104.76282,3527.2 C2292.11282,3659.15 2352.31282,3845.65 2352.91282,4074.8 C2574.96282,4222.75 2799.81282,4372.6 3034.91282,4529.3 C3235.41282,4379.2 3441.56282,4375.9 3657.01282,4552.1 C3690.26282,4484.8 3717.71282,4439.3 3735.96282,4390.4 C3784.51282,4260.5 3814.61282,4121.5 3878.41282,4000 C3994.71282,3778.45 4187.46282,3667.65 4441.56282,3667 C4744.71282,3666.3 4908.51282,3727.1 5067.76282,3915.35 C5006.26282,4091.65 4957.11282,4283.3 4874.46282,4459.1 C4702.16282,4825.85 4430.61282,4941.95 4044.46282,4839.5 C3968.61282,4819.35 3891.06282,4805.7 3813.66282,4788.95 C3705.91282,5386.2 3460.01282,5542.5 3023.51282,5307.1 C2820.46282,5439.9 2614.31282,5574.3 2408.76282,5709.7 C2388.61282,5723 2372.36282,5742.25 2358.06282,5755.3 C2324.01282,6143.55 2157.36282,6354.45 1892.01282,6350.89534 C1633.21282,6347.4 1464.71282,6129.85 1445.16282,5753.4 C1224.71282,5608.35 993.362821,5456.1 766.112821,5306.55 C478.512821,5458.05 285.312821,5445 133.062821,5269.25 C-38.4871795,5071.2 -44.7371795,4799.6 117.662821,4594.5 C279.762821,4389.75 454.612821,4368.65 768.362821,4525.35 C987.362821,4382.7 1213.51282,4235.4 1447.36282,4083.05 C1431.51282,3823.1 1510.56282,3610.35 1745.31282,3499.05 C1783.31282,3372.3 1731.71282,3299.75 1650.46282,3228.2 C1457.86282,3058.45 1294.11282,2862.5 1164.91282,2639.35 C814.462821,2034 842.912821,1434.8 1199.31282,843.6 C1390.71282,526.25 1633.51282,250.95 1904.66282,-1.36424205e-12 L1954.21282,-1.36424205e-12 Z" id="Fill-1" fill="#325EE9" mask="url(#mask-2)"></path>
        </g>
    </g>
</svg>