<?xml version="1.0" encoding="UTF-8"?>
<svg width="275px" height="156px" viewBox="0 0 275 156" version="1.1" xmlns="http://www.w3.org/2000/svg" xmlns:xlink="http://www.w3.org/1999/xlink">
    <title>Fill-1</title>
    <g id="Page-1" stroke="none" stroke-width="1" fill="none" fill-rule="evenodd">
        <g id="root" fill="#780A5C" fill-rule="nonzero">
            <path d="M270.269425,125.185656 C268.504344,124.563152 266.716013,124.001169 264.970056,123.32867 C251.339519,118.079114 239.846804,110.037312 231.716255,97.6323463 C231.330765,97.044426 231.018398,96.4083896 230.803153,96.0268429 C234.639308,95.821973 238.436089,96.0636819 242.040125,95.3400589 C251.10215,93.5191602 258.746336,88.5541665 266.206401,83.3737774 C268.303724,81.9175096 269.138453,79.6071786 268.729338,77.0750619 C267.885984,71.8555784 262.543866,69.5208134 258.003479,72.3002777 C254.968679,74.1572635 252.022377,76.1845357 248.876205,77.8272539 C243.727958,80.5157484 238.347591,82.7332301 232.388239,80.9954071 C229.71943,80.2176533 227.119244,79.033167 224.67168,77.6945584 C217.353361,73.6922652 209.814923,70.283155 201.66525,68.3757975 C193.680948,66.5071585 185.672647,65.576786 177.576222,67.7920122 C177.05386,67.9348573 176.213506,67.6687144 175.789767,67.290175 C172.864089,64.6791176 170.482523,61.6383972 169.015935,57.9582573 C168.647319,57.0331475 168.439574,56.0430057 168.046584,54.7036452 C169.092058,55.1551108 169.658669,55.4017065 170.227155,55.644919 C176.016636,58.1225291 181.987988,58.9070492 188.184334,57.571072 C191.282883,56.9030833 193.358831,54.5062935 193.675698,51.2486742 C193.947192,48.4571809 192.183985,45.3811252 189.333681,44.4868399 C187.743345,43.987634 185.898391,44.045148 184.200433,44.2022775 C179.804417,44.609386 175.87489,43.5793979 172.138482,41.0611897 C172.638345,40.3375667 172.977336,39.8248281 173.338077,39.3278777 C178.702319,31.9371492 184.080061,24.5561943 189.431179,17.1556923 C192.097362,13.468786 191.60875,9.29958962 188.279957,6.88212485 C185.057287,4.54096942 180.931639,5.40593388 178.311954,9.0003668 C174.481049,14.257817 170.671144,19.5310553 166.844738,24.7918887 C165.315526,26.8939666 163.766065,28.9813841 162.060982,31.3003609 C161.372499,30.3470581 160.790888,29.6948576 160.379899,28.9479283 C157.548719,23.80513 154.781287,18.6262446 151.936608,13.4905886 C149.931158,9.86871443 149.343172,6.28819011 150.957507,2.24153979 C151.423246,1.07359343 151.855985,0.368389904 152.601841,0 C147.440469,0.293584199 142.346221,0.0251858404 137.172474,0.00187954032 C137.1406,0.395831192 137.149599,0.634156906 137.080601,0.836019536 C134.849031,7.40012617 133.103075,14.1856426 130.26552,20.4757123 C124.094673,34.1572622 113.395063,41.1446413 98.1460661,40.4811636 C89.9326447,40.1240509 82.1613373,37.8712339 74.549776,34.9387751 C73.094812,34.3786721 71.6660974,33.7475224 70.2013837,33.2152366 C66.7908433,31.9758677 63.0653106,33.5528021 61.5694727,36.8310963 C60.0406356,40.1815649 61.3193539,44.2244561 64.7272694,45.7739492 C68.4119281,47.4486196 72.2015842,48.9338324 76.039989,50.2183102 C86.3132344,53.6563654 96.7987245,55.7362647 107.716204,54.5303516 C108.185317,54.4784763 108.66493,54.5235853 109.68828,54.5235853 C108.160943,55.7896436 107.046471,56.8406826 105.809001,57.7176761 C100.027394,61.8139463 93.4545574,63.9908299 86.5674781,65.0978791 C78.342057,66.4199478 70.7394954,69.1065627 64.0429114,74.1508731 C57.6219455,78.9876821 52.4463238,84.9698831 48.1298058,91.7170569 C47.4255733,92.8180917 46.5975938,93.2522655 45.3170005,93.5112661 C40.1871277,94.5480206 34.9920064,95.4453131 30.0102549,97.0023243 C16.9692031,101.079423 7.55281153,109.22911 2.9584254,122.437016 C2.63668338,123.362126 2.40381415,124.389482 1.83420327,125.145809 C-0.845105325,128.700396 -0.585986747,132.798922 2.5913095,135.315626 C5.83385413,137.884582 10.1016234,137.270724 12.7434329,133.617649 C13.9329034,131.971924 14.8985045,130.071333 15.5554882,128.145556 C18.5985378,119.229016 24.8477579,113.665201 33.4807939,110.516595 C35.2001263,109.889581 36.9738323,109.412553 38.9871574,108.783659 C38.8229115,109.431349 38.7790376,109.667419 38.7040394,109.892588 C36.5478429,116.353696 34.2101508,122.760673 32.2946983,129.292075 C31.0677287,133.476684 30.1970003,137.81128 29.6611386,142.140613 C29.2156496,145.740684 32.1739513,148.791178 35.7693622,149.1934 C39.1772777,149.574947 42.434447,147.150716 43.1739286,143.654771 C43.4716713,142.246619 43.6737912,140.817417 43.9854085,139.412648 C46.8683371,126.408485 50.8402386,113.814437 57.6088209,102.228574 C61.8642154,94.9446036 66.9708388,88.4722185 74.1729103,83.9083187 C75.9721157,82.7681896 77.9404419,81.8968347 79.8791439,80.8766202 C80.0553895,81.3855997 80.1386374,81.5058903 80.1296377,81.6190386 C80.0025158,83.1790571 79.8183954,84.7356924 79.7332725,86.2979663 C78.8392946,102.693572 83.9676675,117.228434 93.3791843,130.417168 C95.9358709,133.999948 100.058144,134.76041 103.352062,132.367003 C106.519984,130.064942 106.917474,125.972807 104.612781,122.344542 C102.304338,118.711015 99.964396,115.048167 98.150191,111.15827 C93.3450601,100.855758 91.9913437,90.0833605 94.8082738,78.9564818 C95.003269,78.186998 95.9024967,77.3430844 96.6764775,77.0179239 C100.236264,75.5236893 104.006796,74.4805444 107.448086,72.7652759 C118.281942,67.363853 125.934002,59.2562678 128.313318,46.9249797 C128.414566,46.400212 128.770432,45.9246883 129.244045,44.9311633 C129.529788,46.048738 129.717284,46.5693706 129.791532,47.1061673 C130.651385,53.306395 131.526239,59.504743 132.324594,65.7132406 C132.618962,68.0036485 133.548564,69.8121422 135.31327,71.3473507 C137.284971,73.0622433 139.195174,74.8925397 140.871007,76.8927465 C142.985955,79.4184728 144.39217,82.3640884 144.646414,85.7314728 C145.024029,90.7457105 142.608714,94.4912585 139.12355,97.7240678 C134.292545,102.206396 128.535688,105.197496 122.661083,108.008912 C118.716556,109.895971 117.194094,113.856914 118.937426,117.50435 C120.620759,121.026609 124.657534,122.35582 128.542063,120.516502 C131.528489,119.101959 134.438792,117.522394 137.354719,115.963503 C138.868557,115.153797 140.321271,114.229439 141.801734,113.356581 C142.015479,113.424244 142.228848,113.492283 142.442593,113.559571 C142.283597,116.142811 142.414469,118.785069 141.908231,121.298014 C140.629138,127.645974 137.170974,132.922971 133.28757,137.980814 C132.305094,139.260405 131.510864,140.909514 131.26862,142.486824 C130.825006,145.379061 132.792957,148.194236 135.530015,149.302413 C138.388569,150.46021 141.35662,149.75012 143.467818,147.215748 C148.730812,140.897109 152.763837,133.873643 154.987532,125.915293 C156.984358,118.769281 156.974608,111.663491 153.703564,104.836248 C153.089704,103.554778 153.263325,102.768378 154.051555,101.682756 C160.421898,92.9086855 160.973884,83.7090874 155.828636,74.1768107 C153.546818,69.9493486 150.461394,66.3534121 147.01523,63.0371511 C146.431369,62.4751686 145.854634,61.6571926 145.742136,60.8884606 C144.256423,50.7310488 142.801834,40.5672466 141.503241,30.3846489 C141.35737,29.2407606 142.211224,27.9683118 142.601589,26.7556324 C143.457318,27.3946761 143.741561,27.9416224 144.084677,28.4483464 C147.162601,33.0028486 150.154277,37.621631 153.393447,42.0580979 C154.380797,43.4102392 154.718289,44.5387153 154.426171,46.13858 C153.378447,51.8719298 153.915809,57.4770949 156.051381,62.9206196 C159.159679,70.8425062 164.745165,76.7329856 171.464624,81.6325713 C177.569473,86.0836987 180.406652,92.1023627 180.29303,99.5400797 C180.194032,105.985399 178.216332,111.952188 175.298154,117.653962 C173.295703,121.566413 174.539923,125.655165 178.147333,127.464034 C181.69812,129.244335 185.5309,127.848212 187.579849,123.998162 C190.183785,119.105343 192.00474,113.916308 193.104587,108.494962 C194.715548,100.553904 194.715923,92.6850202 191.538251,85.0589733 C190.875268,83.4677545 190.048413,81.9453268 189.231683,80.255996 C189.653923,80.2372006 189.891292,80.1932193 190.120786,80.2206606 C197.242985,81.086001 204.046066,83.0929741 210.54278,86.1141472 C211.220013,86.4291582 211.893497,87.2373605 212.124866,87.9594799 C215.628029,98.8916383 221.438885,108.413765 229.429187,116.60593 C230.244417,117.441574 230.302166,118.191886 230.156294,119.274501 C229.799303,121.924653 229.283691,124.630815 229.483936,127.264427 C230.205793,136.748212 234.259067,145.076079 239.105447,153.033677 C240.833405,155.871407 244.412316,156.704419 247.391617,155.397387 C251.421267,153.630243 252.583363,149.309556 250.414792,145.111038 C247.807857,140.063721 245.407166,134.908518 242.956227,129.781884 C242.670109,129.183814 242.62961,128.467709 242.380991,127.403137 C243.526963,128.082779 244.221446,128.485001 244.906929,128.90301 C251.554764,132.951164 258.610214,136.090373 266.045155,138.364241 C269.741813,139.494596 273.605717,137.42635 274.701065,133.81237 C275.784038,130.23786 273.837461,126.44382 270.269425,125.185656" id="Fill-1"></path>
        </g>
    </g>
</svg>