<?xml version="1.0" encoding="UTF-8"?>
<svg width="7279px" height="7568px" viewBox="0 0 7279 7568" version="1.1" xmlns="http://www.w3.org/2000/svg" xmlns:xlink="http://www.w3.org/1999/xlink">
    <title>Group 24</title>
    <defs>
        <polygon id="path-1" points="0.2975903 0.95 1366.15278 0.95 1366.15278 2607.95 0.2975903 2607.95"></polygon>
    </defs>
    <g id="Page-1" stroke="none" stroke-width="1" fill="none" fill-rule="evenodd">
        <g id="Group-24">
            <path d="M1330.93,4443.355 C1711.33,4319.355 2088.88,4196.305 2483.53,4067.605 C2505.33,4124.305 2523.93,4172.705 2549.48,4239.005 C2153.73,4373.105 1771.88,4502.455 1399.98,4628.355 C1316.33,5136.605 1176.93,5403.655 686.83,5415.805 C361.98,5423.855 94.68,5222.855 19.63,4926.405 C-54.17,4635.055 85.93,4299.905 343.13,4152.455 C655.88,3973.205 955.23,4055.705 1330.93,4443.355" id="Fill-1" fill="#325EE9"></path>
            <path d="M2154.61,1919.43 C1536.36,1957.83 1293.86,1851.23 1172.71,1497.38 C1068.86,1193.98 1172.76,875.43 1430.21,707.98 C1692.91,537.18 2046.51,547.98 2258.41,770.33 C2547.01,1072.93 2581.36,1310.28 2306.56,1789.38 C2532.71,2106.58 2767.21,2435.48 3010.56,2776.78 C2976.91,2813.93 2946.26,2847.68 2893.86,2905.48 C2638.96,2565.38 2393.51,2238.08 2154.61,1919.43" id="Fill-3" fill="#325EE9"></path>
            <path d="M5935.325,3141.6 C5561.725,3260.75 5183.975,3381.25 4788.675,3507.3 C4770.175,3445.2 4755.475,3395.85 4738.525,3339 C5129.925,3207.4 5505.275,3081.15 5872.175,2957.75 C5961.475,2341.15 6250.825,2165.9 6581.375,2151.7 C6886.275,2138.55 7161.875,2338.65 7247.975,2617 C7337.025,2904.95 7226.775,3225.5 6983.175,3386.7 C6658.825,3601.4 6393.525,3545.3 5935.325,3141.6" id="Fill-5" fill="#325EE9"></path>
            <path d="M5116.135,1910.59 C4880.585,2230.14 4644.835,2549.84 4409.085,2869.54 C4381.735,2867.69 4354.385,2865.79 4327.035,2863.89 C4331.235,2796.69 4311.235,2713.14 4343.685,2664.84 C4546.435,2362.79 4760.935,2068.59 4963.085,1783.69 C4728.685,1307.04 4750.635,995.79 5020.435,758.44 C5256.535,550.79 5615.535,539.19 5873.885,730.94 C6121.935,914.99 6214.785,1243.39 6100.635,1533.19 C5972.735,1858.04 5663.085,1983.39 5116.135,1910.59" id="Fill-7" fill="#325EE9"></path>
            <path d="M1393.67,2960.935 C1760.92,3083.085 2143.82,3210.485 2545.57,3344.185 C2524.37,3401.085 2506.77,3448.385 2483.72,3510.285 C2089.97,3384.685 1712.47,3264.185 1349.02,3148.235 C829.02,3551.585 578.77,3599.685 272.87,3366.885 C26.67,3179.535 -58.48,2882.985 49.12,2587.535 C153.07,2302.135 423.92,2127.935 728.72,2150.435 C1094.22,2177.435 1283.72,2401.485 1393.67,2960.935" id="Fill-9" fill="#325EE9"></path>
            <path d="M2145.235,5666.405 C2430.035,5360.455 2613.035,4975.755 2906.735,4696.555 C2943.835,4729.105 2980.935,4761.605 3017.985,4794.205 C2780.985,5128.755 2543.985,5463.305 2312.485,5790.055 C2559.785,6298.455 2535.735,6576.005 2231.785,6833.055 C2027.935,7005.405 1656.085,7026.205 1438.335,6877.405 C1165.035,6690.655 1060.085,6346.455 1182.935,6040.155 C1316.235,5707.805 1590.635,5598.805 2145.235,5666.405" id="Fill-11" fill="#325EE9"></path>
            <path d="M4959.2,5775.68 C4733.8,5456.83 4501,5127.53 4261.7,4789.08 C4310.5,4752.03 4341.9,4728.28 4399.45,4684.63 C4643.8,5014.28 4883.75,5337.88 5121.25,5658.18 C5729,5580.68 5926.1,5673.53 6109.5,6090.93 C6228.4,6361.53 6098.7,6693.28 5835.7,6875.43 C5627.55,7019.63 5255.85,7008.03 5061.85,6851.43 C4757.35,6605.53 4729.2,6339.33 4959.2,5775.68" id="Fill-13" fill="#325EE9"></path>
            <path d="M4742.355,4235.74 C4751.305,4180.19 4758.605,4134.54 4769.755,4065.24 C5177.505,4190.94 5570.605,4312.19 5953.805,4430.39 C6303.055,4049.69 6595.005,3968.59 6954.555,4170.54 C7214.405,4316.54 7335.605,4677.04 7245.155,4955.34 C7142.055,5272.24 6865.555,5444.29 6505.605,5415.39 C6170.505,5388.54 5967.305,5135.44 5887.705,4620.69 C5519.605,4496.99 5137.005,4368.34 4742.355,4235.74" id="Fill-15" fill="#325EE9"></path>
            <path d="M3523.995,6180.81 C3603.145,5769.36 3477.045,5349.36 3597.945,4955.11 C3632.045,4955.91 3666.095,4956.76 3700.145,4957.51 L3700.145,6138.66 C4302.145,6555.51 4399.695,6732.41 4274.495,7126.26 C4183.095,7413.76 3934.045,7576.66 3601.295,7566.61 C3294.845,7557.31 3049.845,7356.86 2977.245,7055.96 C2891.895,6701.81 3032.845,6472.86 3523.995,6180.81" id="Fill-17" fill="#325EE9"></path>
            <g id="Group-21" transform="translate(2956.000000, 0.050000)">
                <mask id="mask-2" fill="white">
                    <use xlink:href="#path-1"></use>
                </mask>
                <g id="Clip-20"></g>
                <path d="M737.67,1433.1 L737.67,2606.45 C703.42,2606.95 669.22,2607.4 634.97,2607.95 C532.47,2217.65 638.52,1806.95 570.62,1390.05 C196.67,1213.8 -107.93,965.3 37.22,475.85 C127.47,171.7 395.57,-5.75 697.12,1.1 C994.07,7.9 1257.12,213.9 1337.97,502.9 C1433.67,845.15 1298.17,1068.4 737.67,1433.1" id="Fill-19" fill="#325EE9" mask="url(#mask-2)"></path>
            </g>
            <path d="M3644.21,4465.2411 C3277.76,4467.38 2961.26,4156.83 2956.31,3790.23 C2951.36,3424.18 3259.06,3113.13 3635.41,3103.68 C3991.46,3094.73 4321.76,3424.28 4319.32354,3785.98 C4316.71,4171.53 4027.06,4462.98 3644.21,4465.2411" id="Fill-22" fill="#325EE9"></path>
        </g>
    </g>
</svg>