<?xml version="1.0" encoding="UTF-8"?>
<svg width="21px" height="24px" viewBox="0 0 21 24" version="1.1" xmlns="http://www.w3.org/2000/svg" xmlns:xlink="http://www.w3.org/1999/xlink">
    <title>discord-seeklogo.com</title>
    <g id="Page-1" stroke="none" stroke-width="1" fill="none" fill-rule="evenodd">
        <g id="discord-seeklogo.com" fill="#869AB8" fill-rule="nonzero">
            <path d="M18.5128816,0 L2.45640175,0 C1.10238518,0 0,1.10238518 0,2.4683842 L0,18.6686534 C0,20.0346523 1.10238518,21.1370375 2.45640175,21.1370375 L16.0444973,21.1370375 L15.4094276,18.9202848 L16.9431809,20.346196 L18.393057,21.6882301 L20.9692833,23.9648952 L20.9692833,2.4683842 C20.9692833,1.10238518 19.8668981,0 18.5128816,0 Z M13.8876568,15.6490766 C13.8876568,15.6490766 13.4562886,15.1338313 13.0968152,14.6784983 C14.6665158,14.2351478 15.2656382,13.252587 15.2656382,13.252587 C14.7743579,13.5761131 14.3070424,13.8037796 13.8876568,13.9595514 C13.2885344,14.2111828 12.7133769,14.3789371 12.1502018,14.4747967 C10.9998869,14.6904808 9.94543151,14.6305685 9.0467479,14.4628142 C8.36374845,14.3310073 7.77660849,14.1392882 7.28532813,13.947569 C7.00973184,13.839727 6.71017065,13.70792 6.41060946,13.5401658 C6.37466212,13.5162009 6.33871478,13.5042184 6.30276743,13.4802536 C6.27880254,13.4682711 6.26682009,13.4562886 6.25483764,13.4443062 C6.03915358,13.3244817 5.91932911,13.2406046 5.91932911,13.2406046 C5.91932911,13.2406046 6.49448659,14.1992004 8.01625744,14.6545334 C7.65678401,15.1098664 7.21343345,15.6490766 7.21343345,15.6490766 C4.56531253,15.5651994 3.55878693,13.8277445 3.55878693,13.8277445 C3.55878693,9.96939637 5.28425939,6.84197758 5.28425939,6.84197758 C7.00973184,5.54787323 8.65132718,5.583721 8.65132718,5.583721 L8.77115165,5.72760994 C6.61431107,6.35069722 5.61976792,7.29731058 5.61976792,7.29731058 C5.61976792,7.29731058 5.88338176,7.15352121 6.32673232,6.9498196 C7.60885422,6.38664456 8.62736224,6.23087274 9.0467479,6.1949254 C9.11864265,6.18294296 9.17855484,6.17096051 9.2504495,6.17096051 C9.98137884,6.07510092 10.8081677,6.05113603 11.670904,6.14699561 C12.8092365,6.27880254 14.0314461,6.61431107 15.2776207,7.29731058 C15.2776207,7.29731058 14.3310073,6.39862701 12.2939912,5.77553974 L12.4617455,5.583721 C12.4617455,5.583721 14.1033408,5.54787323 15.8288133,6.84197758 C15.8288133,6.84197758 17.5542857,9.96939637 17.5542857,13.8277445 C17.5542857,13.8277445 16.5357777,15.5651994 13.8876568,15.6490766 Z M8.31581865,10.0532735 C7.63281911,10.0532735 7.09360897,10.6523959 7.09360897,11.3833252 C7.09360897,12.1142545 7.64480156,12.7133769 8.31581865,12.7133769 C8.9988181,12.7133769 9.53802831,12.1142545 9.53802831,11.3833252 C9.5500107,10.6523959 8.9988181,10.0532735 8.31581865,10.0532735 M12.689412,10.0532735 C12.0064125,10.0532735 11.4672024,10.6523959 11.4672024,11.3833252 C11.4672024,12.1142545 12.0183949,12.7133769 12.689412,12.7133769 C13.3724115,12.7133769 13.9116216,12.1142545 13.9116216,11.3833252 C13.9116216,10.6523959 13.3724115,10.0532735 12.689412,10.0532735" id="Shape"></path>
        </g>
    </g>
</svg>