<?xml version="1.0" encoding="UTF-8"?>
<svg width="48px" height="48px" viewBox="0 0 48 48" version="1.1" xmlns="http://www.w3.org/2000/svg" xmlns:xlink="http://www.w3.org/1999/xlink">
    <title>Telegram_(software)-Logo.wine</title>
    <g id="Page-1" stroke="none" stroke-width="1" fill="none" fill-rule="evenodd">
        <g id="Telegram_(software)-Logo.wine" fill-rule="nonzero">
            <circle id="Oval" fill="#869AB8" cx="23.975968" cy="23.975968" r="23.975968"></circle>
            <path d="M9.97843756,23.7680839 L26.1241039,17.1157922 C27.7178821,16.4228452 33.1228691,14.2054146 33.1228691,14.2054146 C33.1228691,14.2054146 35.6174785,13.2352887 35.4095944,15.5913087 C35.3402997,16.5614346 34.7859421,19.9568751 34.2315844,23.6294945 L32.4992168,34.5087632 C32.4992168,34.5087632 32.3606274,36.1025415 31.1826174,36.3797203 C30.0046074,36.6568991 28.0643556,35.4095944 27.7178821,35.1324156 C27.4407033,34.9245315 22.5207792,31.8062697 20.7191169,30.2817862 C20.2340539,29.866018 19.6796963,29.0344815 20.7884116,28.0643556 C23.283021,25.7776304 26.2626933,22.9365475 28.0643556,21.1348851 C28.8958921,20.3033487 29.7274286,18.3630969 26.2626933,20.7191169 L16.4921399,27.3021139 C16.4921399,27.3021139 15.3834246,27.9950609 13.3045834,27.3714086 C11.2257423,26.7477562 8.80042757,25.9162198 8.80042757,25.9162198 C8.80042757,25.9162198 7.13735465,24.8767992 9.97843756,23.7680839 Z" id="Path" fill="#FFFFFF"></path>
        </g>
    </g>
</svg>